HIERARCHY
ROOT Root
{
	OFFSET 0.00000 0.00000 0.00000
	CHANNELS 6 Xposition Yposition Zposition Zrotation Xrotation Yrotation
	JOINT Hip
	{
		OFFSET 0 0 0	
		CHANNELS 3 Zrotation Xrotation Yrotation
		JOINT Tummy
		{
			OFFSET 0 0.04 0	
			CHANNELS 3 Zrotation Xrotation Yrotation
			JOINT ChestBottom
			{
				OFFSET 0 0.194 0	
				CHANNELS 3 Zrotation Xrotation Yrotation
				JOINT ChestTop
				{
					OFFSET 0 0.166 0	
					CHANNELS 3 Zrotation Xrotation Yrotation
					JOINT LeftCollar
					{
						OFFSET 0 0.1 0	
						CHANNELS 3 Zrotation Xrotation Yrotation
						JOINT LeftUpperArm
						{
							OFFSET 0.156 -0.02 0.03	
							CHANNELS 3 Zrotation Xrotation Yrotation
							JOINT LeftForeArm
							{
								OFFSET 0.035 -0.27 -0.01	
								CHANNELS 3 Zrotation Xrotation Yrotation
								JOINT LeftHand
								{
									OFFSET 0.01 -0.27 0.01	
									CHANNELS 3 Zrotation Xrotation Yrotation
									End Site
									{
										OFFSET 0 -0.15 0
									}
								}
							}
						}
					}
					JOINT RightCollar
					{
						OFFSET 0 0.1 0	
						CHANNELS 3 Zrotation Xrotation Yrotation
						JOINT RightUpperArm
						{
							OFFSET -0.156 -0.02 0.03	
							CHANNELS 3 Zrotation Xrotation Yrotation
							JOINT RightForeArm
							{
								OFFSET -0.035 -0.27 -0.01	
								CHANNELS 3 Zrotation Xrotation Yrotation
								JOINT RightHand
								{
									OFFSET -0.01 -0.27 0.01	
									CHANNELS 3 Zrotation Xrotation Yrotation
									End Site
									{
										OFFSET 0 -0.15 0
									}
								}
							}
						}
					}
					JOINT Neck
					{
						OFFSET 0 0.1 0	
						CHANNELS 3 Zrotation Xrotation Yrotation
						JOINT Head
						{
							OFFSET 0 0.127 0.03	
							CHANNELS 3 Zrotation Xrotation Yrotation
							End Site
							{
								OFFSET 0 0.127 0.03
							}
						}
					}
				}
			}
		}
	}
	JOINT LeftHip
	{
		OFFSET 0 0 0	
		CHANNELS 3 Zrotation Xrotation Yrotation
		JOINT LeftThigh
		{
			OFFSET 0.088 -0.06 0	
			CHANNELS 3 Zrotation Xrotation Yrotation
			JOINT LeftLowerLeg
			{
				OFFSET 0 -0.39 0.02	
				CHANNELS 3 Zrotation Xrotation Yrotation
				JOINT LeftFootTop
				{
					OFFSET 0 -0.43 -0.02	
					CHANNELS 3 Zrotation Xrotation Yrotation
					JOINT LeftFootFront
					{
						OFFSET 0 -0.07 0.085	
						CHANNELS 3 Zrotation Xrotation Yrotation
						End Site
						{
							OFFSET 0 -0.005 0.09
						}
					}
				}
				JOINT LeftHeel
				{
					OFFSET 0 -0.43 -0.02	
					CHANNELS 3 Zrotation Xrotation Yrotation
					End Site
					{
						OFFSET 0 -0.075 -0.05
					}
				}
			}
		}
	}
	JOINT RightHip
	{
		OFFSET 0 0 0	
		CHANNELS 3 Zrotation Xrotation Yrotation
		JOINT RightThigh
		{
			OFFSET -0.088 -0.06 0	
			CHANNELS 3 Zrotation Xrotation Yrotation
			JOINT RightLowerLeg
			{
				OFFSET 0 -0.39 0.02	
				CHANNELS 3 Zrotation Xrotation Yrotation
				JOINT RightFootTop
				{
					OFFSET 0 -0.43 -0.02	
					CHANNELS 3 Zrotation Xrotation Yrotation
					JOINT RightFootFront
					{
						OFFSET 0 -0.07 0.085	
						CHANNELS 3 Zrotation Xrotation Yrotation
						End Site
						{
							OFFSET 0 -0.005 0.09
						}
					}
				}
				JOINT RightHeel
				{
					OFFSET 0 -0.43 -0.02	
					CHANNELS 3 Zrotation Xrotation Yrotation
					End Site
					{
						OFFSET 0 -0.075 -0.05
					}
				}
			}
		}
	}
}
MOTION
Frames: 15
Frame Time: 0.025
0 0.54877 0 -0 0 -0 113.06 -35.153 88.149 -1.9349 1.3669 8.9219 -1.9349 1.3669 8.9219 -1.6113 1.1687 7.4911 -0 0 -0 -7.5587 -62.893 -49.676 8.9174 -18.366 13.344 -0 0 -0 -0 0 -0 -11.649 -57.283 7.6787 6.5493 -9.6504 2.1094 -0 0 -0 34.56 12.327 -62.208 34.56 12.327 -62.208 113.06 -35.153 88.149 8.4788 -62.611 0.57435 10.505 7.3589 5.7 -0 0 -0 -0 0 -0 -0 0 -0 113.06 -35.153 88.149 -141.65 65.764 85.84 175.04 -8.004 124.49 -0 0 -0 -0 0 -0 -0 0 -0 
0 0.54877 0 -0 0 -0 113.22 -35.174 87.958 -1.8944 1.3607 9.1248 -1.8944 1.3606 9.1248 -1.577 1.1635 7.6616 -0 0 -0 -9.4282 -63.061 -51.694 9.2271 -18.764 13.65 -0 0 -0 -0 0 -0 -11.706 -57.653 7.9769 6.4128 -9.6114 2.0801 -0 0 -0 34.377 12.207 -62.359 34.377 12.207 -62.359 113.22 -35.174 87.958 10.011 -63.698 1.7868 10.563 7.3598 5.5825 -0 0 -0 -0 0 -0 -0 0 -0 113.22 -35.174 87.958 -141.33 65.486 85.501 175.81 -7.2629 124.9 -0 0 -0 -0 0 -0 -0 0 -0 
0 0.54877 0 -0 0 -0 113.29 -35.237 87.693 -1.8422 1.3311 9.3365 -1.8422 1.3311 9.3365 -1.5332 1.1386 7.8396 -0 0 -0 -11.282 -63.26 -53.608 9.3991 -19.13 13.896 -0 0 -0 -0 0 -0 -11.743 -58.042 8.1546 6.2518 -9.4823 2.2603 -0 0 -0 34.182 12.007 -62.45 34.182 12.007 -62.45 113.29 -35.237 87.693 11.82 -64.859 3.3269 10.609 7.3909 5.3697 -0 0 -0 -0 0 -0 -0 0 -0 113.29 -35.237 87.693 -140.83 65.24 85.022 176.56 -6.5236 125.39 -0 0 -0 -0 0 -0 -0 0 -0 
0 0.54877 0 -0 0 -0 113.34 -35.329 87.428 -1.784 1.3009 9.534 -1.784 1.3009 9.534 -1.4843 1.113 8.0057 -0 0 -0 -13.085 -63.532 -55.436 9.4695 -19.43 14.177 -0 0 -0 -0 0 -0 -11.738 -58.496 8.2746 6.1282 -9.2965 2.4308 -0 0 -0 33.97 11.755 -62.464 33.97 11.755 -62.464 113.34 -35.329 87.428 13.772 -66.04 5.0534 10.658 7.4242 5.0764 -0 0 -0 -0 0 -0 -0 0 -0 113.34 -35.329 87.428 -140.31 65.025 84.549 177.29 -5.789 125.9 -0 0 -0 -0 0 -0 -0 0 -0 
0 0.54877 0 -0 0 -0 113.4 -35.459 87.218 -1.7073 1.283 9.7079 -1.7073 1.283 9.7079 -1.4198 1.0974 8.1519 -0 0 -0 -14.798 -63.873 -57.211 9.4845 -19.625 14.479 -0 0 -0 -0 0 -0 -11.694 -58.981 8.4841 6.0234 -9.1156 2.4617 -0 0 -0 33.731 11.496 -62.429 33.731 11.496 -62.429 113.4 -35.459 87.218 15.733 -67.146 6.7933 10.733 7.4193 4.7397 -0 0 -0 -0 0 -0 -0 0 -0 113.4 -35.459 87.218 -139.86 64.824 84.192 177.98 -5.075 126.45 -0 0 -0 -0 0 -0 -0 0 -0 
0 0.54877 0 -0 0 -0 113.5 -35.636 87.069 -1.5978 1.2697 9.8621 -1.5978 1.2697 9.8621 -1.3278 1.0853 8.2816 -0 0 -0 -16.34 -64.233 -58.931 9.4827 -19.713 14.762 -0 0 -0 -0 0 -0 -11.631 -59.437 8.8765 5.914 -8.9886 2.3397 -0 0 -0 33.453 11.278 -62.393 33.453 11.278 -62.393 113.5 -35.636 87.069 17.669 -68.188 8.4759 10.848 7.4191 4.3315 -0 0 -0 -0 0 -0 -0 0 -0 113.5 -35.636 87.069 -139.49 64.622 83.964 178.61 -4.3842 126.98 -0 0 -0 -0 0 -0 -0 0 -0 
0 0.54877 0 -0 0 -0 113.6 -35.872 86.922 -1.4521 1.2579 10.008 -1.4521 1.2579 10.008 -1.2053 1.074 8.4044 -0 0 -0 -17.657 -64.637 -60.575 9.4698 -19.742 15.02 -0 0 -0 -0 0 -0 -11.59 -59.904 9.4158 5.8189 -8.9146 2.0943 -0 0 -0 33.156 11.086 -62.362 33.156 11.086 -62.362 113.6 -35.872 86.922 19.71 -69.2 10.222 10.999 7.4389 3.7782 -0 0 -0 -0 0 -0 -0 0 -0 113.6 -35.872 86.922 -139.06 64.421 83.745 179.21 -3.7019 127.44 -0 0 -0 -0 0 -0 -0 0 -0 
0 0.54877 0 -0 0 -0 113.63 -36.196 86.689 -1.2577 1.205 10.164 -1.2577 1.205 10.164 -1.0423 1.0275 8.536 -0 0 -0 -18.667 -65.044 -62.029 9.4161 -19.786 15.257 -0 0 -0 -0 0 -0 -11.539 -60.325 10.067 5.7523 -8.8844 1.7625 -0 0 -0 32.855 10.914 -62.349 32.855 10.914 -62.349 113.63 -36.196 86.689 22.143 -70.138 12.256 11.137 7.4321 3.0921 -0 0 -0 -0 0 -0 -0 0 -0 113.63 -36.196 86.689 -138.4 64.221 83.376 179.79 -3.0157 127.81 -0 0 -0 -0 0 -0 -0 0 -0 
0 0.54877 0 -0 0 -0 113.58 -36.604 86.332 -1.0135 1.0698 10.346 -1.0135 1.0698 10.346 -0.83857 0.91124 8.6893 -0 0 -0 -19.357 -65.373 -63.242 9.3172 -19.885 15.475 -0 0 -0 -0 0 -0 -11.443 -60.601 10.756 5.7162 -8.8935 1.417 -0 0 -0 32.536 10.78 -62.383 32.536 10.78 -62.383 113.58 -36.604 86.332 25.167 -70.978 14.657 11.205 7.4254 2.4293 -0 0 -0 -0 0 -0 -0 0 -0 113.58 -36.604 86.332 -137.47 64.015 82.794 -179.62 -2.3263 128.13 -0 0 -0 -0 0 -0 -0 0 -0 
0 0.54877 0 -0 0 -0 113.46 -37.036 85.896 -0.75158 0.88377 10.551 -0.75158 0.88379 10.55 -0.62057 0.7519 8.8615 -0 0 -0 -19.893 -65.672 -64.344 9.2021 -20.015 15.665 -0 0 -0 -0 0 -0 -11.389 -60.799 11.333 5.7099 -8.9291 1.1216 -0 0 -0 32.206 10.663 -62.45 32.206 10.663 -62.45 113.46 -37.036 85.896 28.603 -71.758 17.217 11.218 7.4923 1.9533 -0 0 -0 -0 0 -0 -0 0 -0 113.46 -37.036 85.896 -136.4 63.809 82.086 -179.03 -1.6333 128.46 -0 0 -0 -0 0 -0 -0 0 -0 
0 0.54877 0 -0 0 -0 113.33 -37.433 85.466 -0.49755 0.69501 10.755 -0.49754 0.69502 10.755 -0.4093 0.59029 9.0339 -0 0 -0 -20.4 -66.008 -65.389 9.0844 -20.136 15.774 -0 0 -0 -0 0 -0 -11.452 -61.002 11.74 5.7197 -8.9852 0.90273 -0 0 -0 31.867 10.548 -62.536 31.867 10.548 -62.536 113.33 -37.433 85.466 31.98 -72.481 19.569 11.24 7.6166 1.6989 -0 0 -0 -0 0 -0 -0 0 -0 113.33 -37.433 85.466 -135.38 63.617 81.404 -178.44 -0.93247 128.79 -0 0 -0 -0 0 -0 -0 0 -0 
0 0.54877 0 -0 0 -0 113.24 -37.769 85.118 -0.2497 0.52319 10.929 -0.24969 0.52319 10.929 -0.20311 0.44282 9.1799 -0 0 -0 -20.832 -66.386 -66.223 8.96 -20.235 15.749 -0 0 -0 -0 0 -0 -11.599 -61.221 12.081 5.7347 -9.0654 0.78268 -0 0 -0 31.482 10.445 -62.643 31.482 10.445 -62.643 113.24 -37.769 85.118 34.949 -73.137 21.528 11.293 7.742 1.5818 -0 0 -0 -0 0 -0 -0 0 -0 113.24 -37.769 85.118 -134.57 63.441 80.872 -177.85 -0.22525 129.06 -0 0 -0 -0 0 -0 -0 0 -0 
0 0.54877 0 -0 0 -0 113.22 -38.032 84.894 -0.0061049 0.36474 11.05 -0.0061069 0.36475 11.05 -0.00040273 0.30657 9.2823 -0 0 -0 -21.097 -66.764 -66.682 8.8241 -20.332 15.591 -0 0 -0 -0 0 -0 -11.732 -61.429 12.494 5.7558 -9.1694 0.76822 -0 0 -0 31.015 10.358 -62.787 31.015 10.358 -62.787 113.22 -38.032 84.894 37.418 -73.735 23.122 11.358 7.851 1.536 -0 0 -0 -0 0 -0 -0 0 -0 113.22 -38.032 84.894 -134.03 63.28 80.557 -177.27 0.47255 129.23 -0 0 -0 -0 0 -0 -0 0 -0 
0 0.54877 0 -0 0 -0 113.29 -38.235 84.829 0.23209 0.22327 11.094 0.23209 0.22328 11.094 0.19793 0.18459 9.3192 -0 0 -0 -21.075 -67.146 -66.661 8.694 -20.416 15.356 -0 0 -0 -0 0 -0 -11.698 -61.634 13.148 5.7715 -9.3002 0.78008 -0 0 -0 30.441 10.282 -62.953 30.441 10.282 -62.953 113.29 -38.235 84.829 39.377 -74.287 24.374 11.413 7.9405 1.5422 -0 0 -0 -0 0 -0 -0 0 -0 113.29 -38.235 84.829 -133.79 63.146 80.51 -176.7 1.1408 129.31 -0 0 -0 -0 0 -0 -0 0 -0 
0 0.54877 0 -0 0 -0 113.5 -38.389 84.961 0.44038 0.14576 11.036 0.44038 0.14577 11.036 0.37193 0.11678 9.2702 -0 0 -0 -20.697 -67.653 -66.232 8.6041 -20.425 15.148 -0 0 -0 -0 0 -0 -11.356 -61.936 14.147 5.776 -9.466 0.63214 -0 0 -0 29.789 10.237 -63.069 29.789 10.237 -63.069 113.5 -38.389 84.961 40.788 -74.784 25.238 11.438 8.0282 1.5768 -0 0 -0 -0 0 -0 -0 0 -0 113.5 -38.389 84.961 -133.9 63.031 80.795 -176.16 1.7679 129.33 -0 0 -0 -0 0 -0 -0 0 -0 
